<?xml version="1.0" standalone="no"?><!-- Generator: Gravit.io --><svg xmlns="http://www.w3.org/2000/svg" xmlns:xlink="http://www.w3.org/1999/xlink" style="isolation:isolate" viewBox="0 0 212.5 1243.8" width="212.5" height="1243.8"><defs><clipPath id="_clipPath_JH3DVPchYrW9YRXztkU6k5EgLyXoNKWr"><rect width="212.5" height="1243.8"/></clipPath></defs><g clip-path="url(#_clipPath_JH3DVPchYrW9YRXztkU6k5EgLyXoNKWr)"><path d=" M 106.25 206.25 C 51.022 206.25 6.25 161.479 6.25 106.25 C 6.25 51.022 51.022 6.25 106.25 6.25 M 106.25 212.5 C 161.478 212.5 206.25 257.272 206.25 312.5 C 206.25 367.729 161.478 412.5 106.25 412.5 M 106.25 212.5 C 78.08 212.5 51.04 201.3 31.12 181.38 C 11.2 161.46 0 134.42 0 106.25 C -0.01 92.05 2.83 77.98 8.35 64.89 C 13.7 52.27 21.43 40.81 31.12 31.12 C 40.81 21.43 52.27 13.7 64.89 8.35 C 77.98 2.83 92.05 -0.01 106.26 0 M 0 106.25 C 0 106.25 0 106.25 0 106.25 L 0 106.25 L 0 106.26 C 0 106.25 0 106.25 0 106.25 Z  M 106.24 206.25 C 120.45 206.24 134.52 209.08 147.61 214.6 C 160.23 219.95 171.69 227.68 181.38 237.37 C 191.07 247.06 198.8 258.52 204.15 271.14 C 209.67 284.23 212.51 298.29 212.5 312.5 C 212.51 326.71 209.67 340.77 204.15 353.86 C 198.81 366.48 191.07 377.94 181.38 387.63 C 171.69 397.32 160.23 405.06 147.61 410.4 C 134.52 415.92 120.45 418.76 106.24 418.75" fill-rule="evenodd" fill="rgb(0,0,0)"/><path d=" M 106.25 618.75 C 51.022 618.75 6.25 573.979 6.25 518.75 C 6.25 463.522 51.022 418.75 106.25 418.75 M 106.25 625 C 161.478 625 206.25 669.772 206.25 725 C 206.25 780.229 161.478 825 106.25 825 M 106.25 625 C 78.08 625 51.04 613.8 31.12 593.88 C 11.2 573.96 0 546.92 0 518.75 C -0.01 504.55 2.83 490.48 8.35 477.39 C 13.7 464.77 21.43 453.31 31.12 443.62 C 40.81 433.93 52.27 426.2 64.89 420.85 C 77.98 415.33 92.05 412.49 106.26 412.5 M 0 518.75 C 0 518.75 0 518.75 0 518.75 L 0 518.75 L 0 518.76 C 0 518.75 0 518.75 0 518.75 Z  M 106.24 618.75 C 120.45 618.74 134.52 621.58 147.61 627.1 C 160.23 632.45 171.69 640.18 181.38 649.87 C 191.07 659.56 198.8 671.02 204.15 683.64 C 209.67 696.73 212.51 710.79 212.5 725 C 212.51 739.21 209.67 753.27 204.15 766.36 C 198.81 778.98 191.07 790.44 181.38 800.13 C 171.69 809.82 160.23 817.56 147.61 822.9 C 134.52 828.42 120.45 831.26 106.24 831.25" fill-rule="evenodd" fill="rgb(0,0,0)"/><path d=" M 106.25 1031.25 C 51.022 1031.25 6.25 986.479 6.25 931.25 C 6.25 876.022 51.022 831.25 106.25 831.25 M 106.25 1037.5 C 161.478 1037.5 206.25 1082.272 206.25 1137.5 C 206.25 1192.729 161.478 1237.5 106.25 1237.5 M 106.25 1037.5 C 78.08 1037.5 51.04 1026.3 31.12 1006.38 C 11.2 986.46 0 959.42 0 931.25 C -0.01 917.05 2.83 902.98 8.35 889.89 C 13.7 877.27 21.43 865.81 31.12 856.12 C 40.81 846.43 52.27 838.7 64.89 833.35 C 77.98 827.83 92.05 824.99 106.26 825 M 0 931.25 C 0 931.25 0 931.25 0 931.25 L 0 931.25 L 0 931.26 C 0 931.25 0 931.25 0 931.25 Z  M 106.24 1031.25 C 120.45 1031.24 134.52 1034.08 147.61 1039.6 C 160.23 1044.95 171.69 1052.68 181.38 1062.37 C 191.07 1072.06 198.8 1083.52 204.15 1096.14 C 209.67 1109.23 212.51 1123.29 212.5 1137.5 C 212.51 1151.71 209.67 1165.77 204.15 1178.86 C 198.81 1191.48 191.07 1202.94 181.38 1212.63 C 171.69 1222.32 160.23 1230.06 147.61 1235.4 C 134.52 1240.92 120.45 1243.76 106.24 1243.75" fill-rule="evenodd" fill="rgb(0,0,0)"/></g></svg>