<?xml version="1.0" standalone="no"?><!-- Generator: Gravit.io --><svg xmlns="http://www.w3.org/2000/svg" xmlns:xlink="http://www.w3.org/1999/xlink" style="isolation:isolate" viewBox="0 0 515 159" width="515" height="159"><defs><clipPath id="_clipPath_tLXvqOFKrXbj7iFHpKcyCTa9Zup7PmTO"><rect width="515" height="159"/></clipPath></defs><g clip-path="url(#_clipPath_tLXvqOFKrXbj7iFHpKcyCTa9Zup7PmTO)"><g style="isolation:isolate"><rect x="2.121" y="2" width="155" height="155" transform="matrix(1,0,0,1,0,0)" fill="none" vector-effect="non-scaling-stroke" stroke-width="2" stroke="rgb(255,255,255)" stroke-linejoin="miter" stroke-linecap="square" stroke-miterlimit="2"/><path d=" M 80.742 102.274 L 76.258 102.274 L 76.258 98.262 L 76.258 98.262 Q 76.258 92.48 78.559 87.76 L 78.559 87.76 L 78.559 87.76 Q 80.86 83.04 84.105 79.854 L 84.105 79.854 L 84.105 79.854 Q 87.35 76.668 90.595 73.6 L 90.595 73.6 L 90.595 73.6 Q 93.84 70.532 96.141 66.579 L 96.141 66.579 L 96.141 66.579 Q 98.442 62.626 98.442 57.906 L 98.442 57.906 L 98.442 57.906 Q 98.442 50.59 93.545 45.752 L 93.545 45.752 L 93.545 45.752 Q 88.648 40.914 80.034 40.914 L 80.034 40.914 L 80.034 40.914 Q 71.066 40.914 65.815 45.988 L 65.815 45.988 L 65.815 45.988 Q 60.564 51.062 60.564 58.732 L 60.564 58.732 L 56.316 58.732 L 56.316 58.732 Q 56.316 49.292 62.806 42.979 L 62.806 42.979 L 62.806 42.979 Q 69.296 36.666 80.034 36.666 L 80.034 36.666 L 80.034 36.666 Q 90.772 36.666 96.849 42.743 L 96.849 42.743 L 96.849 42.743 Q 102.926 48.82 102.926 57.906 L 102.926 57.906 L 102.926 57.906 Q 102.926 63.216 100.625 67.523 L 100.625 67.523 L 100.625 67.523 Q 98.324 71.83 95.079 74.957 L 95.079 74.957 L 95.079 74.957 Q 91.834 78.084 88.589 81.152 L 88.589 81.152 L 88.589 81.152 Q 85.344 84.22 83.043 88.586 L 83.043 88.586 L 83.043 88.586 Q 80.742 92.952 80.742 98.262 L 80.742 98.262 L 80.742 102.274 Z  M 78.5 122.334 L 78.5 122.334 L 78.5 122.334 Q 77.084 122.334 76.081 121.331 L 76.081 121.331 L 76.081 121.331 Q 75.078 120.328 75.078 118.912 L 75.078 118.912 L 75.078 118.912 Q 75.078 117.378 76.081 116.316 L 76.081 116.316 L 76.081 116.316 Q 77.084 115.254 78.5 115.254 L 78.5 115.254 L 78.5 115.254 Q 80.034 115.254 80.978 116.316 L 80.978 116.316 L 80.978 116.316 Q 81.922 117.378 81.922 118.912 L 81.922 118.912 L 81.922 118.912 Q 81.922 120.328 80.978 121.331 L 80.978 121.331 L 80.978 121.331 Q 80.034 122.334 78.5 122.334 Z " fill="rgb(255,255,255)"/><rect x="180" y="2" width="155" height="155" transform="matrix(1,0,0,1,0,0)" fill="none" vector-effect="non-scaling-stroke" stroke-width="2" stroke="rgb(255,255,255)" stroke-linejoin="miter" stroke-linecap="square" stroke-miterlimit="2"/><path d=" M 234.726 80.621 L 234.726 76.137 L 238.738 76.137 L 238.738 76.137 Q 244.52 76.137 249.24 78.438 L 249.24 78.438 L 249.24 78.438 Q 253.96 80.739 257.146 83.984 L 257.146 83.984 L 257.146 83.984 Q 260.332 87.229 263.4 90.474 L 263.4 90.474 L 263.4 90.474 Q 266.468 93.719 270.421 96.02 L 270.421 96.02 L 270.421 96.02 Q 274.374 98.321 279.094 98.321 L 279.094 98.321 L 279.094 98.321 Q 286.41 98.321 291.248 93.424 L 291.248 93.424 L 291.248 93.424 Q 296.086 88.527 296.086 79.913 L 296.086 79.913 L 296.086 79.913 Q 296.086 70.945 291.012 65.694 L 291.012 65.694 L 291.012 65.694 Q 285.938 60.443 278.268 60.443 L 278.268 60.443 L 278.268 56.195 L 278.268 56.195 Q 287.708 56.195 294.021 62.685 L 294.021 62.685 L 294.021 62.685 Q 300.334 69.175 300.334 79.913 L 300.334 79.913 L 300.334 79.913 Q 300.334 90.651 294.257 96.728 L 294.257 96.728 L 294.257 96.728 Q 288.18 102.805 279.094 102.805 L 279.094 102.805 L 279.094 102.805 Q 273.784 102.805 269.477 100.504 L 269.477 100.504 L 269.477 100.504 Q 265.17 98.203 262.043 94.958 L 262.043 94.958 L 262.043 94.958 Q 258.916 91.713 255.848 88.468 L 255.848 88.468 L 255.848 88.468 Q 252.78 85.223 248.414 82.922 L 248.414 82.922 L 248.414 82.922 Q 244.048 80.621 238.738 80.621 L 238.738 80.621 L 234.726 80.621 Z  M 214.666 78.379 L 214.666 78.379 L 214.666 78.379 Q 214.666 76.963 215.669 75.96 L 215.669 75.96 L 215.669 75.96 Q 216.672 74.957 218.088 74.957 L 218.088 74.957 L 218.088 74.957 Q 219.622 74.957 220.684 75.96 L 220.684 75.96 L 220.684 75.96 Q 221.746 76.963 221.746 78.379 L 221.746 78.379 L 221.746 78.379 Q 221.746 79.913 220.684 80.857 L 220.684 80.857 L 220.684 80.857 Q 219.622 81.801 218.088 81.801 L 218.088 81.801 L 218.088 81.801 Q 216.672 81.801 215.669 80.857 L 215.669 80.857 L 215.669 80.857 Q 214.666 79.913 214.666 78.379 Z " fill="rgb(255,255,255)"/><rect x="357.879" y="2" width="155" height="155" transform="matrix(1,0,0,1,0,0)" fill="none" vector-effect="non-scaling-stroke" stroke-width="2" stroke="rgb(255,255,255)" stroke-linejoin="miter" stroke-linecap="square" stroke-miterlimit="2"/><path d=" M 434.258 56.726 L 438.742 56.726 L 438.742 60.738 L 438.742 60.738 Q 438.742 66.52 436.441 71.24 L 436.441 71.24 L 436.441 71.24 Q 434.14 75.96 430.895 79.146 L 430.895 79.146 L 430.895 79.146 Q 427.65 82.332 424.405 85.4 L 424.405 85.4 L 424.405 85.4 Q 421.16 88.468 418.859 92.421 L 418.859 92.421 L 418.859 92.421 Q 416.558 96.374 416.558 101.094 L 416.558 101.094 L 416.558 101.094 Q 416.558 108.41 421.455 113.248 L 421.455 113.248 L 421.455 113.248 Q 426.352 118.086 434.966 118.086 L 434.966 118.086 L 434.966 118.086 Q 443.934 118.086 449.185 113.012 L 449.185 113.012 L 449.185 113.012 Q 454.436 107.938 454.436 100.268 L 454.436 100.268 L 458.684 100.268 L 458.684 100.268 Q 458.684 109.708 452.194 116.021 L 452.194 116.021 L 452.194 116.021 Q 445.704 122.334 434.966 122.334 L 434.966 122.334 L 434.966 122.334 Q 424.228 122.334 418.151 116.257 L 418.151 116.257 L 418.151 116.257 Q 412.074 110.18 412.074 101.094 L 412.074 101.094 L 412.074 101.094 Q 412.074 95.784 414.375 91.477 L 414.375 91.477 L 414.375 91.477 Q 416.676 87.17 419.921 84.043 L 419.921 84.043 L 419.921 84.043 Q 423.166 80.916 426.411 77.848 L 426.411 77.848 L 426.411 77.848 Q 429.656 74.78 431.957 70.414 L 431.957 70.414 L 431.957 70.414 Q 434.258 66.048 434.258 60.738 L 434.258 60.738 L 434.258 56.726 Z  M 436.5 36.666 L 436.5 36.666 L 436.5 36.666 Q 437.916 36.666 438.919 37.669 L 438.919 37.669 L 438.919 37.669 Q 439.922 38.672 439.922 40.088 L 439.922 40.088 L 439.922 40.088 Q 439.922 41.622 438.919 42.684 L 438.919 42.684 L 438.919 42.684 Q 437.916 43.746 436.5 43.746 L 436.5 43.746 L 436.5 43.746 Q 434.966 43.746 434.022 42.684 L 434.022 42.684 L 434.022 42.684 Q 433.078 41.622 433.078 40.088 L 433.078 40.088 L 433.078 40.088 Q 433.078 38.672 434.022 37.669 L 434.022 37.669 L 434.022 37.669 Q 434.966 36.666 436.5 36.666 Z " fill="rgb(255,255,255)"/></g></g></svg>