<?xml version="1.0" standalone="no"?><!-- Generator: Gravit.io --><svg xmlns="http://www.w3.org/2000/svg" xmlns:xlink="http://www.w3.org/1999/xlink" style="isolation:isolate" viewBox="0 0 220.5 1251.8" width="220.5" height="1251.8"><defs><clipPath id="_clipPath_RsPNIYU7jNERS6WQP35VeekS1vy8mSkf"><rect width="220.5" height="1251.8"/></clipPath></defs><g clip-path="url(#_clipPath_RsPNIYU7jNERS6WQP35VeekS1vy8mSkf)"><g><g><path d=" M 110.25 210.25 C 55.022 210.25 10.25 165.479 10.25 110.25 C 10.25 55.022 55.022 10.25 110.25 10.25 M 110.25 216.5 C 165.478 216.5 210.25 261.272 210.25 316.5 C 210.25 371.729 165.478 416.5 110.25 416.5 M 110.25 216.5 C 82.08 216.5 55.04 205.3 35.12 185.38 C 15.2 165.46 4 138.42 4 110.25 C 3.99 96.05 6.83 81.98 12.35 68.89 C 17.7 56.27 25.43 44.81 35.12 35.12 C 44.81 25.43 56.27 17.7 68.89 12.35 C 81.98 6.83 96.05 3.99 110.26 4 M 4 110.25 C 4 110.25 4 110.25 4 110.25 L 4 110.25 L 4 110.26 C 4 110.25 4 110.25 4 110.25 Z  M 110.24 210.25 C 124.45 210.24 138.52 213.08 151.61 218.6 C 164.23 223.95 175.69 231.68 185.38 241.37 C 195.07 251.06 202.8 262.52 208.15 275.14 C 213.67 288.23 216.51 302.29 216.5 316.5 C 216.51 330.71 213.67 344.77 208.15 357.86 C 202.81 370.48 195.07 381.94 185.38 391.63 C 175.69 401.32 164.23 409.06 151.61 414.4 C 138.52 419.92 124.45 422.76 110.24 422.75" fill-rule="evenodd" fill="rgb(0,0,0)" vector-effect="non-scaling-stroke" stroke-width="2" stroke="rgb(0,0,0)" stroke-opacity="100" stroke-linejoin="miter" stroke-linecap="butt" stroke-miterlimit="4"/><path d=" M 110.25 622.75 C 55.022 622.75 10.25 577.979 10.25 522.75 C 10.25 467.522 55.022 422.75 110.25 422.75 M 110.25 629 C 165.478 629 210.25 673.772 210.25 729 C 210.25 784.229 165.478 829 110.25 829 M 110.25 629 C 82.08 629 55.04 617.8 35.12 597.88 C 15.2 577.96 4 550.92 4 522.75 C 3.99 508.55 6.83 494.48 12.35 481.39 C 17.7 468.77 25.43 457.31 35.12 447.62 C 44.81 437.93 56.27 430.2 68.89 424.85 C 81.98 419.33 96.05 416.49 110.26 416.5 M 4 522.75 C 4 522.75 4 522.75 4 522.75 L 4 522.75 L 4 522.76 C 4 522.75 4 522.75 4 522.75 Z  M 110.24 622.75 C 124.45 622.74 138.52 625.58 151.61 631.1 C 164.23 636.45 175.69 644.18 185.38 653.87 C 195.07 663.56 202.8 675.02 208.15 687.64 C 213.67 700.73 216.51 714.79 216.5 729 C 216.51 743.21 213.67 757.27 208.15 770.36 C 202.81 782.98 195.07 794.44 185.38 804.13 C 175.69 813.82 164.23 821.56 151.61 826.9 C 138.52 832.42 124.45 835.26 110.24 835.25" fill-rule="evenodd" fill="rgb(0,0,0)" vector-effect="non-scaling-stroke" stroke-width="2" stroke="rgb(0,0,0)" stroke-opacity="100" stroke-linejoin="miter" stroke-linecap="butt" stroke-miterlimit="4"/><path d=" M 110.25 1035.25 C 55.022 1035.25 10.25 990.479 10.25 935.25 C 10.25 880.022 55.022 835.25 110.25 835.25 M 110.25 1041.5 C 165.478 1041.5 210.25 1086.272 210.25 1141.5 C 210.25 1196.729 165.478 1241.5 110.25 1241.5 M 110.25 1041.5 C 82.08 1041.5 55.04 1030.3 35.12 1010.38 C 15.2 990.46 4 963.42 4 935.25 C 3.99 921.05 6.83 906.98 12.35 893.89 C 17.7 881.27 25.43 869.81 35.12 860.12 C 44.81 850.43 56.27 842.7 68.89 837.35 C 81.98 831.83 96.05 828.99 110.26 829 M 4 935.25 C 4 935.25 4 935.25 4 935.25 L 4 935.25 L 4 935.26 C 4 935.25 4 935.25 4 935.25 Z  M 110.24 1035.25 C 124.45 1035.24 138.52 1038.08 151.61 1043.6 C 164.23 1048.95 175.69 1056.68 185.38 1066.37 C 195.07 1076.06 202.8 1087.52 208.15 1100.14 C 213.67 1113.23 216.51 1127.29 216.5 1141.5 C 216.51 1155.71 213.67 1169.77 208.15 1182.86 C 202.81 1195.48 195.07 1206.94 185.38 1216.63 C 175.69 1226.32 164.23 1234.06 151.61 1239.4 C 138.52 1244.92 124.45 1247.76 110.24 1247.75" fill-rule="evenodd" fill="rgb(0,0,0)" vector-effect="non-scaling-stroke" stroke-width="2" stroke="rgb(0,0,0)" stroke-opacity="100" stroke-linejoin="miter" stroke-linecap="butt" stroke-miterlimit="4"/></g></g></g></svg>